# xmcd
#
# Track frame offsets:
#	182
#	16230
#	33505
#	44962
#	61397
#	75167
#	92315
#	107795
#	125355
#	138977
#	154990
#
# Disc length: 2283 seconds
#
# Revision: 8
# Processed by: cddbd v1.5PL3 Copyright (c) Steve Scherf et al.
# Submitted via: EasyCDDAExtractor 5.0.6
#
DISCID=8708e90b
DTITLE=Chely Wright - Right In The Middle Of It
DYEAR=1996
DGENRE=country
TTITLE0=Listenin' To The Radio
TTITLE1=The Love That We Lost
TTITLE2=Heart Shaped World
TTITLE3=The Love He Left Behind
TTITLE4=Right In The Middle Of It
TTITLE5=What I Learned From Loving You
TTITLE6=Alligator Purse
TTITLE7=The Other Woman
TTITLE8=Day One
TTITLE9=It's Not Too Late
TTITLE10=Gotta Get Good At Givin' Again
EXTD=
EXTT0=
EXTT1=
EXTT2=
EXTT3=
EXTT4=
EXTT5=
EXTT6=
EXTT7=
EXTT8=
EXTT9=
EXTT10=
PLAYORDER=
